<svg xmlns="http://www.w3.org/2000/svg" width="920" height="420" viewBox="0 0 920 420"><defs><marker id="white" viewBox="0 0 12 12" refX="10" refY="6" markerWidth="9" markerHeight="9" orient="auto-start-reverse"><path d="M 2 2 L 10 6 L 2 10" fill="none" stroke="#eaedf3" stroke-width="1.5"/></marker><marker id="yellow" viewBox="0 0 12 12" refX="10" refY="6" markerWidth="9" markerHeight="9" orient="auto-start-reverse"><path d="M 2 2 L 10 6 L 2 10" fill="none" stroke="#ff6bed" stroke-width="1.5"/></marker></defs><path d="M 33 102 Q 170 98 308 102 L 311 257 Q 170 263 31 260 Z" fill="#212737" stroke="#eaedf3" stroke-width="2.2" stroke-linejoin="round"/><text x="170" y="160" fill="#eaedf3" text-anchor="middle" font-family="'Comic Sans MS', 'Chalkboard SE', cursive" font-size="23"><tspan x="170" dy="0">Actual diff</tspan><tspan x="170" dy="29">design + behavior</tspan><tspan x="170" dy="29">complexity + gaps</tspan></text><path d="M 325 180 Q 359.5 177 390 180" fill="none" stroke="#eaedf3" stroke-width="2" marker-end="url(#white)"/><path d="M 413 102 Q 530 98 648 102 L 651 257 Q 530 263 411 260 Z" fill="#3e2946" stroke="#ff6bed" stroke-width="2.2" stroke-linejoin="round"/><text x="530" y="188" fill="#ff6bed" text-anchor="middle" font-family="'Comic Sans MS', 'Chalkboard SE', cursive" font-size="23"><tspan x="530" dy="0">Lead review</tspan></text><path d="M 665 150 Q 689.5 122 710 100" fill="none" stroke="#eaedf3" stroke-width="2" marker-end="url(#white)"/><path d="M 665 210 Q 689.5 257 710 310" fill="none" stroke="#eaedf3" stroke-width="2" marker-end="url(#white)"/><path d="M 728 52 Q 815 48 903 52 L 906 147 Q 815 153 726 150 Z" fill="#212737" stroke="#eaedf3" stroke-width="2.2" stroke-linejoin="round"/><text x="815" y="108" fill="#eaedf3" text-anchor="middle" font-family="'Comic Sans MS', 'Chalkboard SE', cursive" font-size="23"><tspan x="815" dy="0">Proceed</tspan></text><path d="M 728 262 Q 815 258 903 262 L 906 357 Q 815 363 726 360 Z" fill="#3e2946" stroke="#ff6bed" stroke-width="2.2" stroke-linejoin="round"/><text x="815" y="318" fill="#ff6bed" text-anchor="middle" font-family="'Comic Sans MS', 'Chalkboard SE', cursive" font-size="23"><tspan x="815" dy="0">Revise</tspan></text></svg>